<?xml version="1.0" encoding="utf-8"?>
<svg viewBox="0 0 300 375" xmlns="http://www.w3.org/2000/svg" xmlns:bx="https://boxy-svg.com">
  <defs>
    <filter id="contrast-filter-0" x="-500%" y="-500%" width="1000%" height="1000%" bx:preset="contrast 1 0.82">
      <feComponentTransfer>
        <feFuncR type="linear" slope="0.82" intercept="0.09000000000000002"/>
        <feFuncG type="linear" slope="0.82" intercept="0.09000000000000002"/>
        <feFuncB type="linear" slope="0.82" intercept="0.09000000000000002"/>
      </feComponentTransfer>
    </filter>
  </defs>
  <g transform="matrix(0.026378, 0, 0, -0.017876, 27.417648, 92.180473)" fill="#000000" stroke="none" style="filter: url(#contrast-filter-0); mix-blend-mode: darken;">
    <path d="M630 3735 c-159 -45 -278 -189 -345 -422 -33 -113 -55 -256 -55 -360 l0 -83 48 0 48 0 22 98 c55 242 170 372 345 389 99 9 183 -16 247 -74 96 -86 149 -232 269 -743 38 -162 77 -324 86 -360 l16 -65 -525 -1046 c-289 -575 -526 -1049 -526 -1052 0 -4 106 -7 236 -7 l236 0 363 733 c202 406 366 725 369 717 3 -8 48 -199 102 -425 143 -609 205 -778 328 -900 66 -66 118 -96 211 -120 171 -44 347 4 470 129 75 77 119 150 161 274 34 96 34 99 34 280 l0 182 -30 0 c-16 0 -30 -4 -30 -9 0 -47 -37 -198 -60 -247 -72 -150 -216 -226 -403 -211 -136 10 -241 67 -309 167 -75 111 -115 247 -269 903 l-63 269 152 301 c83 166 304 604 491 972 187 369 341 673 341 678 0 4 -106 6 -236 5 l-235 -3 -135 -265 c-75 -146 -224 -440 -331 -655 -157 -312 -197 -386 -204 -370 -5 11 -47 182 -95 380 -160 671 -246 855 -432 925 -75 29 -215 36 -292 15z"/>
  </g>
</svg>